<svg width="32" height="26" viewBox="0 0 32 26" fill="none" xmlns="http://www.w3.org/2000/svg">
    <path d="M0 3.43935V23.1337C0.00834174 24.2634 1.13817 25.14 1.13817 25.14C1.14428 25.1984 2.91056 26.0129 4.02736 25.9998H28.1477C29.4118 25.6736 30.0067 25.4401 30.6867 24.8534C31.4287 24.1754 31.7049 23.7496 32 22.929V7.20626C31.6941 6.35317 31.4178 5.90201 30.6867 5.15902C29.851 4.48499 29.3174 4.21466 28.1477 4.09446H17.0725C16.1935 3.25946 15.7922 2.71482 15.097 1.77152L15.0588 1.71968C14.2986 0.707693 13.7807 0.244241 12.2572 0H4.02736C2.86977 0.0350782 2.33075 0.207473 1.53215 0.818893C0.70884 1.55247 0.393334 2.14234 0 3.43935Z"
          fill="#377DFF"/>
    <path d="M0 3.43935V23.1337C0.00834174 24.2634 1.13817 25.14 1.13817 25.14C1.14428 25.1984 2.91056 26.0129 4.02736 25.9998H28.1477C29.4118 25.6736 30.0067 25.4401 30.6867 24.8534C31.4287 24.1754 31.7049 23.7496 32 22.929V7.20626C31.6941 6.35317 31.4178 5.90201 30.6867 5.15902C29.851 4.48499 29.3174 4.21466 28.1477 4.09446H17.0725C16.1935 3.25946 15.7922 2.71482 15.097 1.77152L15.0588 1.71968C14.2986 0.707693 13.7807 0.244241 12.2572 0H4.02736C2.86977 0.0350782 2.33075 0.207473 1.53215 0.818893C0.70884 1.55247 0.393334 2.14234 0 3.43935Z"
          fill="url(#paint0_linear_4023_17010)"/>
    <path d="M14.6724 13.1837V10.509C14.8241 10.0242 15.013 9.81603 15.5721 9.58105H16.5318C17.1118 9.83965 17.3006 10.0464 17.4315 10.509L17.5514 13.1837H20.3105C20.9926 13.4115 21.2419 13.6149 21.4501 14.1116V14.8758C21.283 15.3969 21.0168 15.5951 20.3705 15.8584L17.5514 15.913V18.5876C17.2963 19.0255 17.0742 19.207 16.5917 19.461C16.1701 19.502 15.9337 19.4963 15.5121 19.461C15.0005 19.1979 14.7982 19.0018 14.5524 18.5876V15.8907L11.6734 15.8584C11.0482 15.595 10.831 15.3686 10.5938 14.8758V14.1116C10.7935 13.645 11.0059 13.4337 11.4934 13.1837H14.6724Z"
          fill="#FFFCFC"/>
    <defs>
        <linearGradient id="paint0_linear_4023_17010" x1="16" y1="0" x2="16" y2="26" gradientUnits="userSpaceOnUse">
            <stop stop-color="#08B6FF"/>
            <stop offset="1" stop-color="#387BFE"/>
        </linearGradient>
    </defs>
</svg>
