<svg width="32" height="26" viewBox="0 0 32 26" fill="none" xmlns="http://www.w3.org/2000/svg">
    <path d="M0 3.43935V23.1337C0.00834174 24.2634 1.13817 25.14 1.13817 25.14C1.14428 25.1984 2.91056 26.0129 4.02736 25.9998H28.1477C29.4118 25.6736 30.0067 25.4401 30.6867 24.8534C31.4287 24.1754 31.7049 23.7496 32 22.929V7.20626C31.6941 6.35317 31.4178 5.90201 30.6867 5.15902C29.851 4.48499 29.3174 4.21466 28.1477 4.09446H17.0725C16.1935 3.25946 15.7922 2.71482 15.097 1.77152L15.0588 1.71968C14.2986 0.707693 13.7807 0.244241 12.2572 0H4.02736C2.86977 0.0350782 2.33075 0.207473 1.53215 0.818893C0.70884 1.55247 0.393334 2.14234 0 3.43935Z"
          fill="#377DFF"/>
    <path d="M0 3.43935V23.1337C0.00834174 24.2634 1.13817 25.14 1.13817 25.14C1.14428 25.1984 2.91056 26.0129 4.02736 25.9998H28.1477C29.4118 25.6736 30.0067 25.4401 30.6867 24.8534C31.4287 24.1754 31.7049 23.7496 32 22.929V7.20626C31.6941 6.35317 31.4178 5.90201 30.6867 5.15902C29.851 4.48499 29.3174 4.21466 28.1477 4.09446H17.0725C16.1935 3.25946 15.7922 2.71482 15.097 1.77152L15.0588 1.71968C14.2986 0.707693 13.7807 0.244241 12.2572 0H4.02736C2.86977 0.0350782 2.33075 0.207473 1.53215 0.818893C0.70884 1.55247 0.393334 2.14234 0 3.43935Z"
          fill="url(#paint0_linear_4027_16995)"/>
    <path d="M14.86 8.41948L10.3 12.2996L10 12.824V13.8202L10.3 14.2921L10.78 14.764L11.62 15.0787H13.9V20.6367L14.14 21.0562L14.56 21.5281L14.86 21.8427L15.4 22H16.66L17.26 21.8427L17.5 21.5281L17.86 21.0562L18.04 20.6367V15.0787H20.2L21.28 14.764L21.7 14.2921L22 13.8202V12.824L21.7 12.2996L17.26 8.41948L16.78 8.10487L16.3 8H15.94L15.4 8.10487L14.86 8.41948Z"
          fill="#FFFCFC"/>
    <defs>
        <linearGradient id="paint0_linear_4027_16995" x1="16" y1="0" x2="16" y2="26" gradientUnits="userSpaceOnUse">
            <stop stop-color="#08B6FF"/>
            <stop offset="1" stop-color="#387BFE"/>
        </linearGradient>
    </defs>
</svg>
