<?xml version="1.0" standalone="no"?>
<!DOCTYPE svg PUBLIC "-//W3C//DTD SVG 20010904//EN"
 "http://www.w3.org/TR/2001/REC-SVG-20010904/DTD/svg10.dtd">
<svg version="1.0" xmlns="http://www.w3.org/2000/svg"
 width="512.000000pt" height="512.000000pt" viewBox="0 0 512.000000 512.000000"
 preserveAspectRatio="xMidYMid meet">

<g transform="translate(0.000000,512.000000) scale(0.100000,-0.100000)"
fill="#000000" stroke="none">
<path d="M625 5113 c-255 -36 -476 -219 -560 -464 -27 -80 -29 -95 -33 -291
l-4 -208 2532 0 2532 0 -4 208 c-4 180 -8 216 -27 277 -32 99 -83 186 -154
261 -91 98 -193 161 -322 200 -57 18 -154 19 -1995 20 -1064 1 -1948 -1 -1965
-3z"/>
<path d="M34 3845 c-3 -6 -3 -748 -2 -1650 l3 -1640 23 -70 c86 -256 296 -435
558 -475 47 -7 679 -10 1989 -8 1824 3 1923 4 1980 22 129 39 231 102 322 200
73 77 123 163 155 266 l23 75 0 1644 0 1644 -2524 1 c-1702 1 -2525 -2 -2527
-9z m1352 -597 c15 -7 209 -215 431 -462 301 -336 406 -459 415 -488 23 -77
18 -84 -406 -556 -216 -240 -403 -446 -415 -456 -34 -31 -121 -34 -166 -6 -62
39 -88 128 -54 191 8 15 168 198 356 407 l342 381 -317 353 c-407 454 -379
421 -391 465 -19 66 21 148 84 174 30 12 91 10 121 -3z m2484 -1530 c54 -37
74 -72 74 -128 0 -54 -18 -87 -68 -124 -27 -21 -35 -21 -786 -21 -755 0 -759
0 -787 21 -42 32 -66 80 -65 132 0 51 21 85 72 120 l33 22 747 0 747 0 33 -22z"/>
</g>
</svg>
