<svg width="64" height="64" viewBox="0 0 64 64" fill="none" xmlns="http://www.w3.org/2000/svg">
    <g clip-path="url(#clip0_419_7146)">
        <path d="M56 7C56 5.34315 57.3431 4 59 4H61C62.6569 4 64 5.34315 64 7V17C64 18.6569 62.6569 20 61 20H59C57.3431 20 56 18.6569 56 17V7Z"
              fill="#AE4BD5"/>
        <path d="M56 27C56 25.3431 57.3431 24 59 24H61C62.6569 24 64 25.3431 64 27V37C64 38.6569 62.6569 40 61 40H59C57.3431 40 56 38.6569 56 37V27Z"
              fill="#9332BF"/>
        <path d="M56 47C56 45.3431 57.3431 44 59 44H61C62.6569 44 64 45.3431 64 47V57C64 58.6569 62.6569 60 61 60H59C57.3431 60 56 58.6569 56 57V47Z"
              fill="#7719AA"/>
        <path fill-rule="evenodd" clip-rule="evenodd"
              d="M15 58.4127V5.5873C15 2.50152 17.4624 0 20.5 0H53.5C56.5376 0 59 2.50152 59 5.5873V58.4127C59 61.4985 56.5376 64 53.5 64H20.5C17.4624 64 15 61.4985 15 58.4127ZM18.5 5.5873V58.4127C18.5 59.5348 19.3954 60.4444 20.5 60.4444H53.5C54.6046 60.4444 55.5 59.5348 55.5 58.4127V5.5873C55.5 4.4652 54.6046 3.55556 53.5 3.55556H20.5C19.3954 3.55556 18.5 4.4652 18.5 5.5873Z"
              fill="#9D9C9B"/>
        <path d="M0 18.5C0 16.8431 1.34315 15.5 3 15.5H33C34.6569 15.5 36 16.8431 36 18.5V48.5C36 50.1569 34.6569 51.5 33 51.5H3C1.34315 51.5 0 50.1569 0 48.5V18.5Z"
              fill="#7719AA"/>
        <path d="M8 43V24H11.5L24.5 37V24H28V43H24.5L11.5 30V43H8Z" fill="white"/>
    </g>
    <defs>
        <clipPath id="clip0_419_7146">
            <rect width="64" height="64" fill="white"/>
        </clipPath>
    </defs>
</svg>
