<svg width="26" height="32" viewBox="0 0 26 32" fill="none" xmlns="http://www.w3.org/2000/svg">
    <path d="M0.0138417 4.10321V27.4965C-0.0595784 28.8918 0.144181 29.5695 0.985197 30.5739C2.00089 31.3443 2.60623 31.7353 3.84376 32H21.9665C23.4212 31.6992 24.075 31.3997 24.9083 30.5739C25.8007 29.4745 26.0546 28.8044 25.9907 27.4965L25.8695 10.1329H18.6361C17.6558 9.90922 17.1078 9.71172 16.1383 9.20719C15.3302 8.17321 14.9227 7.55985 14.5842 6.17983V0H3.84376C2.66812 0.200943 2.08323 0.449304 1.15172 1.12588C0.286501 2.20933 0.0615375 2.86541 0.0138417 4.10321Z"
          fill="#3382FF"/>
    <path d="M0.0138417 4.10321V27.4965C-0.0595784 28.8918 0.144181 29.5695 0.985197 30.5739C2.00089 31.3443 2.60623 31.7353 3.84376 32H21.9665C23.4212 31.6992 24.075 31.3997 24.9083 30.5739C25.8007 29.4745 26.0546 28.8044 25.9907 27.4965L25.8695 10.1329H18.6361C17.6558 9.90922 17.1078 9.71172 16.1383 9.20719C15.3302 8.17321 14.9227 7.55985 14.5842 6.17983V0H3.84376C2.66812 0.200943 2.08323 0.449304 1.15172 1.12588C0.286501 2.20933 0.0615375 2.86541 0.0138417 4.10321Z"
          fill="url(#paint0_linear_4025_17017)"/>
    <path d="M25.8519 7.60594C25.6914 6.71997 25.4193 6.26674 24.7418 5.5043L19.2744 0.725567C18.6296 0.327551 18.1579 0.167135 17.1097 0H14.5842V6.17983C14.9227 7.55985 15.3302 8.17321 16.1383 9.20719C17.1078 9.71172 17.6558 9.90922 18.6361 10.1329H25.8695L25.8519 7.60594Z"
          fill="#C9E7FF"/>
    <path d="M12.1117 10.7975L8.47188 14.6128L8.23242 15.1284V16.108L8.47188 16.572L8.85502 17.036L9.5255 17.3454H11.3454V22.8105L11.537 23.223L11.8722 23.687L12.1117 23.9964L12.5427 24.151H13.5484L14.0273 23.9964L14.2189 23.687L14.5062 23.223L14.6499 22.8105V17.3454H16.374L17.2361 17.036L17.5713 16.572L17.8108 16.108V15.1284L17.5713 14.6128L14.0273 10.7975L13.6442 10.4881L13.2611 10.385H12.9737L12.5427 10.4881L12.1117 10.7975Z"
          fill="#FFFCFC"/>
    <defs>
        <linearGradient id="paint0_linear_4025_17017" x1="13" y1="0" x2="13" y2="32" gradientUnits="userSpaceOnUse">
            <stop stop-color="#0EB1FF"/>
            <stop offset="1" stop-color="#3481FF"/>
        </linearGradient>
    </defs>
</svg>
